<svg id="Layer_1" data-name="Layer 1" xmlns="http://www.w3.org/2000/svg" viewBox="0 0 64 64"><defs><style>.cls-1{fill-rule:evenodd;}</style></defs><title>icon-vk</title><path class="cls-1" d="M32,0A32,32,0,1,0,64,32,32,32,0,0,0,32,0ZM48.91,36.66c3.45,3.21,4.15,4.77,4.26,5,1.43,2.37-1.59,2.56-1.59,2.56l-5.77.08a4.12,4.12,0,0,1-2.88-.89c-2.15-1.48-4.17-5.32-5.77-4.82s-1.56,4-1.56,4a1.9,1.9,0,0,1-.38,1.13,2.18,2.18,0,0,1-1.17.51H31.46l.09.1a14.83,14.83,0,0,1-10.7-4.88c-5.47-5.69-10.3-17-10.3-17s-.27-.75,0-1.1,1.24-.43,1.24-.43L18,20.81a2.84,2.84,0,0,1,1,.4,2,2,0,0,1,.54.73,40.28,40.28,0,0,0,2.32,4.8c2.59,4.45,3.77,5.42,4.66,5,1.27-.7.89-6.29.89-6.29a6.18,6.18,0,0,0-.64-2.94,2.88,2.88,0,0,0-1.91-1c-.33,0,.24-.85,1-1.21,1.11-.54,3.06-.58,5.38-.56a11.87,11.87,0,0,1,3,.3c2.13.51,1.4,2.5,1.4,7.25,0,1.53-.28,3.67.81,4.37.46.32,1.62.05,4.53-4.85a37,37,0,0,0,2.4-5.07,1.77,1.77,0,0,1,.56-.7,1.49,1.49,0,0,1,.84-.16l6.47-.06s2-.21,2.26.65-.73,3.07-3.37,6.6C45.78,33.85,45.3,33.32,48.91,36.66Z"/></svg>