<svg id="Layer_1" data-name="Layer 1" xmlns="http://www.w3.org/2000/svg" viewBox="0 0 64 64"><defs><style>.cls-1{fill-rule:evenodd;}</style></defs><title>icon-inst</title><ellipse cx="32" cy="32" rx="6.68" ry="6.61"/><path class="cls-1" d="M47.62,20.3A6.12,6.12,0,0,0,46.12,18a6.23,6.23,0,0,0-2.31-1.48,11.14,11.14,0,0,0-3.72-.69c-2.11-.09-2.75-.12-8.1-.12l-.08,0c-5.36,0-6,0-8.11.1a11.19,11.19,0,0,0-3.71.7A5.93,5.93,0,0,0,17.8,18a5.87,5.87,0,0,0-1.5,2.28,11.14,11.14,0,0,0-.7,3.69c-.08,2.11-.1,2.75-.1,8s0,5.92.1,8a11.16,11.16,0,0,0,.7,3.69A6,6,0,0,0,17.8,46a6.21,6.21,0,0,0,2.3,1.49,11.46,11.46,0,0,0,3.73.7c2.13.1,2.75.12,8.11.12s6,0,8.11-.12a11.24,11.24,0,0,0,3.73-.68,6.59,6.59,0,0,0,3.8-3.77A11.06,11.06,0,0,0,48.3,40c.1-2.09.12-2.72.12-8s0-5.92-.12-8A10.85,10.85,0,0,0,47.62,20.3ZM32,42.18A10.18,10.18,0,1,1,42.29,32,10.24,10.24,0,0,1,32,42.18ZM42.7,23.79a2.38,2.38,0,1,1,2.4-2.38A2.39,2.39,0,0,1,42.7,23.79Z"/><path class="cls-1" d="M32,0A32,32,0,1,0,64,32,32,32,0,0,0,32,0ZM51.91,40.18A14.5,14.5,0,0,1,51,45a9.67,9.67,0,0,1-2.31,3.51,9.86,9.86,0,0,1-3.55,2.29,15,15,0,0,1-4.86.92c-2.14.09-2.82.12-8.26.12s-6.12,0-8.26-.12a14.92,14.92,0,0,1-4.86-.92A10.19,10.19,0,0,1,13,45a14.5,14.5,0,0,1-.93-4.81C12,38.06,12,37.39,12,32s0-6.06.12-8.18A14.45,14.45,0,0,1,13,19a9.67,9.67,0,0,1,2.31-3.51,9.82,9.82,0,0,1,3.55-2.29,14.9,14.9,0,0,1,4.86-.92c2.14-.09,2.82-.12,8.26-.12s6.12,0,8.26.12a14.87,14.87,0,0,1,4.86.92A10.19,10.19,0,0,1,51,19a14.54,14.54,0,0,1,.93,4.81C52,25.94,52,26.61,52,32S52,38.06,51.91,40.18Z"/></svg>